0
SECTION
2
HEADER
9
$INSUNITS
70
4
9
$ACADVER
1
AC1014
9
$HANDSEED
5
FFFF
0
ENDSEC
0
SECTION
2
TABLES
0
TABLE
2
VPORT
5
8
100
AcDbSymbolTable
0
ENDTAB
0
TABLE
2
LTYPE
5
5
100
AcDbSymbolTable
0
LTYPE
5
14
100
AcDbSymbolTableRecord
100
AcDbLinetypeTableRecord
2
BYBLOCK
70
0
0
LTYPE
5
15
100
AcDbSymbolTableRecord
100
AcDbLinetypeTableRecord
2
BYLAYER
70
0
0
LTYPE
5
16
100
AcDbSymbolTableRecord
100
AcDbLinetypeTableRecord
2
DASHED
70
0
3
Dashed __ __ __ __ __ __ __ __ __ __ __ __ __ _
72
65
73
2
40
0.75
49
0.5
74
0
49
-0.25
74
0
0
ENDTAB
0
TABLE
2
LAYER
5
2
100
AcDbSymbolTable
70
2
0
LAYER
5
50
100
AcDbSymbolTableRecord
100
AcDbLayerTableRecord
2
0
70
0
62
7
6
CONTINUOUS
0
ENDTAB
0
TABLE
2
STYLE
5
3
100
AcDbSymbolTable
70
1
0
STYLE
5
11
100
AcDbSymbolTableRecord
100
AcDbTextStyleTableRecord
2
STANDARD
70
0
0
ENDTAB
0
TABLE
2
VIEW
5
6
100
AcDbSymbolTable
70
0
0
ENDTAB
0
TABLE
2
UCS
5
7
100
AcDbSymbolTable
70
0
0
ENDTAB
0
TABLE
2
APPID
5
9
100
AcDbSymbolTable
70
2
0
APPID
5
12
100
AcDbSymbolTableRecord
100
AcDbRegAppTableRecord
2
ACAD
70
0
0
ENDTAB
0
TABLE
2
DIMSTYLE
5
A
100
AcDbSymbolTable
70
1
0
ENDTAB
0
TABLE
2
BLOCK_RECORD
5
1
100
AcDbSymbolTable
70
1
0
BLOCK_RECORD
5
1F
100
AcDbSymbolTableRecord
100
AcDbBlockTableRecord
2
*MODEL_SPACE
0
BLOCK_RECORD
5
1B
100
AcDbSymbolTableRecord
100
AcDbBlockTableRecord
2
*PAPER_SPACE
0
ENDTAB
0
ENDSEC
0
SECTION
2
BLOCKS
0
BLOCK
5
20
100
AcDbEntity
100
AcDbBlockBegin
2
*MODEL_SPACE
0
ENDBLK
5
21
100
AcDbEntity
100
AcDbBlockEnd
0
BLOCK
5
1C
100
AcDbEntity
100
AcDbBlockBegin
2
*PAPER_SPACE
0
ENDBLK
5
1D
100
AcDbEntity
100
AcDbBlockEnd
0
ENDSEC
0
SECTION
2
ENTITIES
0
LWPOLYLINE
5
100
100
AcDbEntity
8
0
100
AcDbPolyline
90
4
70
1
43
0.0
10
69.999999999995708
20
99.999999999997698
10
369.99999999999568
20
99.999999999997698
10
369.99999999999568
20
399.99999999999773
10
69.999999999995708
20
399.99999999999773
0
LWPOLYLINE
5
101
100
AcDbEntity
8
0
100
AcDbPolyline
90
4
70
1
43
0.0
10
176.56211495046318
20
276.95588158146882
10
164.56211495046321
20
276.95588158146882
10
164.56211495046321
20
299.35588158146868
10
176.56211495046318
20
299.35588158146868
0
CIRCLE
5
102
100
AcDbEntity
8
0
100
AcDbCircle
10
170.60510929285894
20
302.00163973530897
30
0
40
1.0000000149011576
210
0
220
-0
230
1
0
CIRCLE
5
103
100
AcDbEntity
8
0
100
AcDbCircle
10
170.56640834523466
20
274.3016667707617
30
0
40
1.0000000149011576
210
0
220
-0
230
1
0
LWPOLYLINE
5
104
100
AcDbEntity
8
0
100
AcDbPolyline
90
4
70
1
43
0.0
10
189.99999999999562
20
302.55337821625341
10
192.99999999999562
20
302.55337821625341
10
192.99999999999559
20
272.55337821625352
10
189.99999999999559
20
272.55337821625352
0
LWPOLYLINE
5
105
100
AcDbEntity
8
0
100
AcDbPolyline
90
4
70
1
43
0.0
10
149.99999999999577
20
272.55337821625358
10
146.99999999999577
20
272.55337821625358
10
146.99999999999579
20
302.55337821625346
10
149.99999999999577
20
302.55337821625341
0
LWPOLYLINE
5
106
100
AcDbEntity
8
0
100
AcDbPolyline
90
8
70
1
43
0.0
10
219.99999999999557
20
347.70797289395875
10
219.99999999999559
20
382.4999999999971
42
0.4142135623730992
10
214.99999999999559
20
387.49999999999716
10
124.99999999999591
20
387.4999999999971
42
0.41421356237309398
10
119.99999999999595
20
382.49999999999716
10
119.99999999999589
20
347.70797289395881
42
-0.1993620463225986
10
117.05882352940769
20
340.62468196525742
42
2.4201328815660235
10
222.9411764705838
20
340.62468196525737
42
-0.19936204632259744
0
LWPOLYLINE
5
107
100
AcDbEntity
8
0
100
AcDbPolyline
90
4
70
1
43
0.0
10
163.42177948451919
20
168.8476785574272
10
163.42177948451919
20
171.8476785872295
10
178.42177948451894
20
171.8476785872295
10
178.42177948451899
20
168.8476785574272
0
LWPOLYLINE
5
108
100
AcDbEntity
8
0
100
AcDbPolyline
90
4
70
1
43
0.0
10
188.3437405202605
20
168.84767855742723
10
188.3437405202605
20
171.84767858722952
10
203.34374052026024
20
171.8476785872295
10
203.34374052026024
20
168.8476785574272
0
CIRCLE
5
109
100
AcDbEntity
8
0
100
AcDbCircle
10
160.90698393880754
20
128.41149418731337
30
0
40
1.0000000149011457
210
0
220
-0
230
1
0
CIRCLE
5
110
100
AcDbEntity
8
0
100
AcDbCircle
10
176.41030246086541
20
151.3773977272923
30
0
40
1.0000000149011499
210
0
220
-0
230
1
0
LWPOLYLINE
5
111
100
AcDbEntity
8
0
100
AcDbPolyline
90
4
70
1
43
0.0
10
166.95669351524685
20
127.35401726397666
10
157.18457104880991
20
134.31861506291338
10
170.18515360682525
20
152.55991033359581
10
179.95727607326228
20
145.59531253465875
0
LWPOLYLINE
5
112
100
AcDbEntity
8
0
100
AcDbPolyline
90
12
70
1
43
0.0
10
167.70024717503784
20
207.45223586642183
10
167.70024717503782
20
204.40291109813637
10
157.70024717503796
20
204.40291109813637
10
157.70024717503793
20
154.40291109813703
10
148.10358432406909
20
140.9377021433445
42
0.41421356237309476
10
150.44318821365246
20
126.99043525553306
10
162.56446229142139
20
118.3515956326889
42
0.4142135623730927
10
176.51172917923265
20
120.69119952227226
10
207.70024717503713
20
164.45223586642345
10
207.70024717503719
20
204.45223586642294
10
197.70024717503733
20
204.45223586642297
10
197.70024717503725
20
207.45223586642294
0
LWPOLYLINE
5
113
100
AcDbEntity
8
0
100
AcDbPolyline
90
4
70
1
43
0.0
10
150.64349334521975
20
178.46297908524002
10
150.64349334521975
20
175.4629790554377
10
135.64349334522001
20
175.4629790554377
10
135.64349334522001
20
178.46297908524002
0
LWPOLYLINE
5
114
100
AcDbEntity
8
0
100
AcDbPolyline
90
4
70
1
43
0.0
10
125.7215323094785
20
178.46297908524002
10
125.7215323094785
20
175.4629790554377
10
110.72153230947875
20
175.4629790554377
10
110.72153230947873
20
178.46297908524005
0
LWPOLYLINE
5
115
100
AcDbEntity
8
0
100
AcDbPolyline
90
9
70
1
43
0.0
10
104.99999999999747
20
165.93246363556312
10
151.34023045170127
20
165.93246363556304
10
154.99999999999665
20
171.06753636443392
10
154.9999999999967
20
211.06753636443358
10
144.99999999999685
20
211.06753636443358
10
144.99999999999685
20
214.06753636443355
10
114.99999999999736
20
214.06753636443355
10
114.99999999999733
20
211.01821159614701
10
104.9999999999975
20
211.01821159614701
0
LWPOLYLINE
5
116
100
AcDbEntity
8
0
100
AcDbPolyline
90
10
70
1
43
0.0
10
96.560888792470735
20
223.63620644905802
10
95.060888777569588
20
226.23428268622089
10
88.132685444055809
20
222.23428262661625
10
89.632685458956956
20
219.63620638945338
10
83.570507542132404
20
216.13620633729931
10
82.070507527231257
20
218.73428257446218
10
77.740380443785128
20
216.23428253720928
10
79.240380458686289
20
213.63620630004641
10
84.939111222421971
20
103.7657173137746
10
97.929492279188537
20
111.2657173137746
0
LWPOLYLINE
5
117
100
AcDbEntity
8
0
100
AcDbPolyline
90
10
70
1
43
0.0
10
78.439111207519872
20
226.36379355093732
10
79.939111222421047
20
223.76571731377439
10
86.867314555934868
20
227.76571737337906
10
85.367314541033693
20
230.36379361054199
10
91.429492457858288
20
233.86379366269605
10
92.929492472759449
20
231.26571742553313
10
97.259619556205607
20
233.76571746278603
10
95.759619541304431
20
236.36379369994899
10
90.060888777568692
20
346.23428268622149
10
77.070507720802027
20
338.73428268622143
0
LWPOLYLINE
5
118
100
AcDbEntity
8
0
100
AcDbPolyline
90
12
70
1
43
0.0
10
71.999999999994756
20
398.07924739234437
10
71.999999999994685
20
351.9207526076454
10
86.999999999994799
20
351.92075260764534
10
86.999999999994799
20
354.97054161824531
10
96.999999999994898
20
354.97054161823814
10
96.999999999994898
20
351.9207526076454
10
111.99999999999503
20
351.92075260764534
10
111.99999999999508
20
398.07924739234431
10
96.999999999994984
20
398.07924739234437
10
96.999999999994969
20
395.07924739234443
10
86.999999999994884
20
395.07924739234443
10
86.999999999994884
20
398.07924739234437
0
LWPOLYLINE
5
119
100
AcDbEntity
8
0
100
AcDbPolyline
90
10
70
1
43
0.0
10
239.43981776690191
20
369.62145004300896
10
242.15874115502191
20
368.35359524519185
10
354.22090830697931
20
376.78393315143688
10
360.56018223308979
20
390.3785499569866
10
250.61110651578602
20
386.47975125602557
10
247.89218312766599
20
387.74760605384267
10
245.77909178747495
20
383.21606705113425
10
248.49801517559499
20
381.94821225331714
10
245.53968729932757
20
375.60405764952532
10
242.82076391120754
20
376.87191244734237
0
LWPOLYLINE
5
120
100
AcDbEntity
8
0
100
AcDbPolyline
90
10
70
1
43
0.0
10
358.63620644905575
20
343.43911120752261
10
361.23428268621865
20
344.93911122242372
10
357.23428262661395
20
351.86731455593758
10
354.63620638945099
20
350.36731454103642
10
351.13620633729704
20
356.42949245786093
10
353.73428257445994
20
357.92949247276204
10
351.23428253720698
20
362.25961955620824
10
348.63620630004402
20
360.75961954130707
10
238.76571731377248
20
355.06088877757134
10
246.26571731377248
20
342.07050772080481
0
LWPOLYLINE
5
121
100
AcDbEntity
8
0
100
AcDbPolyline
90
16
70
1
43
0.0
10
291.62008398294779
20
110.00836438727667
10
291.62008398294779
20
105.01749985570953
42
0.40161481303923852
10
364.98250014428379
20
178.37991601704559
10
359.99163561271666
20
178.37991601704559
10
359.99163561271666
20
181.37991601704559
10
364.98730447072512
20
181.37991601704559
42
0.40347575581890155
10
291.37991601704363
20
254.9873044707272
10
291.37991601704363
20
249.99163561271871
10
288.37991601704363
20
249.99163561271871
10
288.37991601704363
20
254.98250014428584
42
0.40161481303923863
10
215.01749985570763
20
181.62008398294978
10
220.00836438727478
20
181.62008398294978
10
220.00836438727475
20
178.62008398294978
10
215.0126955292663
20
178.62008398294978
42
0.40347575581890166
10
288.62008398294785
20
105.01269552926817
10
288.62008398294785
20
110.00836438727667
0
LWPOLYLINE
5
122
100
AcDbEntity
8
0
100
AcDbPolyline
90
4
70
1
43
0.0
10
291.62563020560469
20
117.00836438727666
10
288.62563017580237
20
117.00836438727666
10
288.62563017580237
20
125.00836438727666
10
291.62563020560469
20
125.00836438727666
0
LWPOLYLINE
5
123
100
AcDbEntity
8
0
100
AcDbPolyline
90
4
70
1
43
0.0
10
352.99163561271666
20
181.37436982419104
10
352.99163561271666
20
178.37436979438874
10
344.99163561271672
20
178.37436979438874
10
344.99163561271672
20
181.37436982419101
0
LWPOLYLINE
5
124
100
AcDbEntity
8
0
100
AcDbPolyline
90
4
70
1
43
0.0
10
288.37436979438672
20
242.99163561271871
10
291.37436982418905
20
242.99163561271871
10
291.3743698241891
20
234.99163561271871
10
288.37436979438678
20
234.99163561271871
0
LWPOLYLINE
5
125
100
AcDbEntity
8
0
100
AcDbPolyline
90
4
70
1
43
0.0
10
227.00836438727478
20
178.62563017580436
10
227.00836438727478
20
181.62563020560665
10
235.00836438727475
20
181.62563020560665
10
235.00836438727475
20
178.62563017580436
0
CIRCLE
5
126
100
AcDbEntity
8
0
100
AcDbCircle
10
303.8499999999957
20
179.9999999999977
30
0
40
1.0000000000000002
210
0
220
0
230
1
0
CIRCLE
5
127
100
AcDbEntity
8
0
100
AcDbCircle
10
276.14999999999577
20
179.99999999999773
30
0
40
1.0000000000000002
210
0
220
0
230
1
0
ENDSEC
0
SECTION
2
OBJECTS
0
DICTIONARY
5
C
100
AcDbDictionary
3
ACAD_GROUP
350
D
3
ACAD_MLINESTYLE
350
17
0
DICTIONARY
5
D
100
AcDbDictionary
0
DICTIONARY
5
1A
330
C
100
AcDbDictionary
0
DICTIONARY
5
17
100
AcDbDictionary
0
ENDSEC
0
EOF
