0
SECTION
2
HEADER
9
$INSUNITS
70
4
9
$ACADVER
1
AC1014
9
$HANDSEED
5
FFFF
0
ENDSEC
0
SECTION
2
TABLES
0
TABLE
2
VPORT
5
8
100
AcDbSymbolTable
0
ENDTAB
0
TABLE
2
LTYPE
5
5
100
AcDbSymbolTable
0
LTYPE
5
14
100
AcDbSymbolTableRecord
100
AcDbLinetypeTableRecord
2
BYBLOCK
70
0
0
LTYPE
5
15
100
AcDbSymbolTableRecord
100
AcDbLinetypeTableRecord
2
BYLAYER
70
0
0
LTYPE
5
16
100
AcDbSymbolTableRecord
100
AcDbLinetypeTableRecord
2
DASHED
70
0
3
Dashed __ __ __ __ __ __ __ __ __ __ __ __ __ _
72
65
73
2
40
0.75
49
0.5
74
0
49
-0.25
74
0
0
ENDTAB
0
TABLE
2
LAYER
5
2
100
AcDbSymbolTable
70
2
0
LAYER
5
50
100
AcDbSymbolTableRecord
100
AcDbLayerTableRecord
2
0
70
0
62
7
6
CONTINUOUS
0
ENDTAB
0
TABLE
2
STYLE
5
3
100
AcDbSymbolTable
70
1
0
STYLE
5
11
100
AcDbSymbolTableRecord
100
AcDbTextStyleTableRecord
2
STANDARD
70
0
0
ENDTAB
0
TABLE
2
VIEW
5
6
100
AcDbSymbolTable
70
0
0
ENDTAB
0
TABLE
2
UCS
5
7
100
AcDbSymbolTable
70
0
0
ENDTAB
0
TABLE
2
APPID
5
9
100
AcDbSymbolTable
70
2
0
APPID
5
12
100
AcDbSymbolTableRecord
100
AcDbRegAppTableRecord
2
ACAD
70
0
0
ENDTAB
0
TABLE
2
DIMSTYLE
5
A
100
AcDbSymbolTable
70
1
0
ENDTAB
0
TABLE
2
BLOCK_RECORD
5
1
100
AcDbSymbolTable
70
1
0
BLOCK_RECORD
5
1F
100
AcDbSymbolTableRecord
100
AcDbBlockTableRecord
2
*MODEL_SPACE
0
BLOCK_RECORD
5
1B
100
AcDbSymbolTableRecord
100
AcDbBlockTableRecord
2
*PAPER_SPACE
0
ENDTAB
0
ENDSEC
0
SECTION
2
BLOCKS
0
BLOCK
5
20
100
AcDbEntity
100
AcDbBlockBegin
2
*MODEL_SPACE
0
ENDBLK
5
21
100
AcDbEntity
100
AcDbBlockEnd
0
BLOCK
5
1C
100
AcDbEntity
100
AcDbBlockBegin
2
*PAPER_SPACE
0
ENDBLK
5
1D
100
AcDbEntity
100
AcDbBlockEnd
0
ENDSEC
0
SECTION
2
ENTITIES
0
LWPOLYLINE
5
100
100
AcDbEntity
8
0
100
AcDbPolyline
90
4
70
1
43
0.0
10
-481.52577358080345
20
-130.57704722054564
10
-469.52619029924631
20
-130.47704187578069
10
-469.33951365568538
20
-152.87626400135355
10
-481.33909693724218
20
-152.97626934611824
0
LWPOLYLINE
5
101
100
AcDbEntity
8
0
100
AcDbPolyline
90
4
70
1
43
0.0
10
-486.19868161138817
20
-96.477595009088404
10
-473.91140094705327
20
-105.08124155435409
10
-475.05855383684934
20
-106.7195456673447
10
-487.34583450118413
20
-98.115899122079014
0
CIRCLE
5
102
100
AcDbEntity
8
0
100
AcDbCircle
10
-475.30379507570046
20
-127.87510079917654
30
0
40
1.0000000149011621
210
-0
220
0
230
1
0
CIRCLE
5
103
100
AcDbEntity
8
0
100
AcDbCircle
10
-475.77692112513625
20
-155.58000582239148
30
0
40
1.0000000149011621
210
-0
220
0
230
1
0
LWPOLYLINE
5
104
100
AcDbEntity
8
0
100
AcDbPolyline
90
4
70
1
43
0.0
10
-466.93095917106575
20
-112.41054871983933
10
-465.78380628126979
20
-110.77224460684872
10
-453.49652561693483
20
-119.37589115211439
10
-454.64367850673079
20
-121.01419526510503
0
LWPOLYLINE
5
105
100
AcDbEntity
8
0
100
AcDbPolyline
90
12
70
1
43
0.0
10
-468.02056738378826
20
-162.74585581415434
42
0.41421356237309293
10
-458.10425243646165
20
-152.66286529221964
10
-458.24205186217296
20
-136.12839217120148
10
-429.56323004462087
20
-95.170789956752003
10
-437.75475048751071
20
-89.435025593241576
10
-436.57930608999101
20
-87.756317019887547
10
-461.15386741866075
20
-70.549023929356181
10
-462.30102029136282
20
-72.187328017934163
10
-470.49254073425277
20
-66.451563654423694
10
-493.43559818829448
20
-99.217645425983278
10
-492.98775919099393
20
-152.95358681460425
42
0.41421356237309764
10
-482.90476866905914
20
-162.86990176193081
0
LWPOLYLINE
5
106
100
AcDbEntity
8
0
100
AcDbPolyline
90
9
70
1
43
0.0
10
-376.4324636355642
20
-81.340230451704173
10
-376.43246363556432
20
-35
10
-421.51821159614838
20
-34.999999999999972
10
-421.51821159614832
20
-44.999999999999872
10
-423.56753636443494
20
-44.999999999999886
10
-423.56753636443494
20
-74.999999999999645
10
-421.567536364435
20
-74.999999999999659
10
-421.567536364435
20
-84.999999999999574
10
-381.56753636443517
20
-84.999999999999559
0
LWPOLYLINE
5
107
100
AcDbEntity
8
0
100
AcDbPolyline
90
4
70
1
43
0.0
10
-387.96297908524127
20
-80.643493345222623
10
-387.96297908524127
20
-65.643493345222737
10
-385.96297905543895
20
-65.643493345222737
10
-385.96297905543895
20
-80.643493345222623
0
LWPOLYLINE
5
108
100
AcDbEntity
8
0
100
AcDbPolyline
90
4
70
1
43
0.0
10
-385.96297905543895
20
-55.721532309481162
10
-387.96297908524127
20
-55.721532309481162
10
-387.96297908524127
20
-40.721532309481276
10
-385.96297905543895
20
-40.721532309481276
0
LWPOLYLINE
5
109
100
AcDbEntity
8
0
100
AcDbPolyline
90
10
70
1
43
0.0
10
-368.29441273849227
20
-38.564904376064327
10
-370.10702833957566
20
-39.410140912140733
10
-366.72608219527001
20
-46.660603316474237
10
-364.91346659418662
20
-45.815366780397831
10
-361.95513871791917
20
-52.159521384189645
10
-363.76775431900256
20
-53.004757920266066
10
-361.65466297881153
20
-57.536296922974508
10
-359.84204737772819
20
-56.691060386898101
10
-249.89297166042434
20
-60.589859087859168
10
-256.23224558653482
20
-46.99524228230942
0
LWPOLYLINE
5
110
100
AcDbEntity
8
0
100
AcDbPolyline
90
10
70
1
43
0.0
10
-249.19873001566896
20
-64.689111222425893
10
-250.93078084904738
20
-63.689111207524732
10
-363.30126998433082
20
-62.320507720806901
10
-370.80126998433087
20
-75.310888777573467
10
-260.93078099805905
20
-81.009619541309206
10
-259.19873016468057
20
-82.009619556210339
10
-256.69873012742767
20
-77.679492472764224
10
-258.43078096080609
20
-76.679492457863063
10
-254.93078090865203
20
-70.61731454103851
10
-253.1987300752736
20
-71.617314555939672
0
LWPOLYLINE
5
111
100
AcDbEntity
8
0
100
AcDbPolyline
90
10
70
1
43
0.0
10
-253.29441273849227
20
-43.564904376064348
10
-255.10702833957566
20
-44.410140912140754
10
-251.72608219527001
20
-51.660603316474266
10
-249.91346659418662
20
-50.815366780397859
10
-246.9551387179192
20
-57.159521384189688
10
-248.76775431900259
20
-58.004757920266094
10
-246.65466297881153
20
-62.536296922974543
10
-244.84204737772816
20
-61.69106038689813
10
-134.89297166042425
20
-65.58985908785921
10
-141.23224558653479
20
-51.995242282309434
0
LWPOLYLINE
5
112
100
AcDbEntity
8
0
100
AcDbPolyline
90
10
70
1
43
0.0
10
-128.70558726150631
20
-87.435095623935908
10
-126.89297166042292
20
-86.589859087859494
10
-130.27391780472857
20
-79.339396683525948
10
-132.08653340581196
20
-80.184633219602347
10
-135.04486128207941
20
-73.840478615810468
10
-133.23224568099599
20
-72.995242079734069
10
-135.34533702118702
20
-68.463703077025585
10
-137.15795262227041
20
-69.308939613101998
10
-247.10702833957527
20
-65.410140912140889
10
-240.7677544134647
20
-79.004757717690751
0
LWPOLYLINE
5
113
100
AcDbEntity
8
0
100
AcDbPolyline
90
4
70
1
43
0.0
10
-324.40250336521513
20
-152.56211495046767
10
-324.40250336521513
20
-164.56211495046767
10
-346.8025033652151
20
-164.56211495046767
10
-346.8025033652151
20
-152.5621149504677
0
CIRCLE
5
114
100
AcDbEntity
8
0
100
AcDbCircle
10
-349.44826151905534
20
-158.6051092928634
30
0
40
1.0000000149011581
210
0
220
-0
230
1
0
CIRCLE
5
115
100
AcDbEntity
8
0
100
AcDbCircle
10
-321.74828855450806
20
-158.56640834523918
30
0
40
1.0000000149011581
210
0
220
-0
230
1
0
LWPOLYLINE
5
116
100
AcDbEntity
8
0
100
AcDbPolyline
90
4
70
1
43
0.0
10
-319.99999999999989
20
-178.00000000000011
10
-319.99999999999989
20
-180.00000000000011
10
-349.99999999999977
20
-180.00000000000011
10
-349.99999999999977
20
-178.00000000000011
0
LWPOLYLINE
5
117
100
AcDbEntity
8
0
100
AcDbPolyline
90
4
70
1
43
0.0
10
-319.99999999999989
20
-138.00000000000023
10
-349.99999999999977
20
-138.00000000000023
10
-349.99999999999977
20
-136.00000000000026
10
-319.99999999999989
20
-136.00000000000026
0
LWPOLYLINE
5
118
100
AcDbEntity
8
0
100
AcDbPolyline
90
8
70
1
43
0.0
10
-429.94662178374364
20
-208.00000000000006
10
-395.15459467770518
20
-208.00000000000006
42
-0.19936204632260057
10
-388.07130374900385
20
-210.94117647058829
42
2.4201328815660221
10
-388.07130374900373
20
-105.05882352941212
42
-0.19936204632260887
10
-395.15459467770512
20
-108.00000000000033
10
-429.94662178374358
20
-108.00000000000034
42
0.41421356237309087
10
-434.94662178374358
20
-113.00000000000031
10
-434.94662178374358
20
-203.00000000000006
42
0.4142135623730992
0
LWPOLYLINE
5
119
100
AcDbEntity
8
0
100
AcDbPolyline
90
4
70
1
43
0.0
10
-242.98327122544219
20
-160.24571415875869
10
-234.98327122544219
20
-160.24571415875869
10
-234.98327122544219
20
-162.24571418856104
10
-242.98327122544214
20
-162.24571418856104
0
LWPOLYLINE
5
120
100
AcDbEntity
8
0
100
AcDbPolyline
90
4
70
1
43
0.0
10
-181.11726581833011
20
-216.11171959567315
10
-179.11726578852779
20
-216.11171959567315
10
-179.11726578852779
20
-224.11171959567312
10
-181.11726581833011
20
-224.11171959567312
0
LWPOLYLINE
5
121
100
AcDbEntity
8
0
100
AcDbPolyline
90
4
70
1
43
0.0
10
-178.86600540711217
20
-98.128448370230984
10
-178.86600540711217
20
-106.12844837023098
10
-180.86600543691449
20
-106.12844837023098
10
-180.86600543691449
20
-98.128448370230984
0
CIRCLE
5
122
100
AcDbEntity
8
0
100
AcDbCircle
10
-193.84163561272112
20
-161.12008398295205
30
0
40
1.0000000000000009
210
0
220
0
230
1
0
CIRCLE
5
123
100
AcDbEntity
8
0
100
AcDbCircle
10
-166.14163561272113
20
-161.12008398295202
30
0
40
1.0000000000000009
210
0
220
0
230
1
0
LWPOLYLINE
5
124
100
AcDbEntity
8
0
100
AcDbPolyline
90
4
70
1
43
0.0
10
-117.00000000000006
20
-161.99445380714542
10
-125.00000000000007
20
-161.99445380714542
10
-125.00000000000007
20
-159.9944537773431
10
-117.00000000000006
20
-159.9944537773431
0
LWPOLYLINE
5
125
100
AcDbEntity
8
0
100
AcDbPolyline
90
20
70
1
43
0.0
10
-179.11171959567324
20
-236.11171959567315
10
-181.11171959567321
20
-236.11171959567312
42
-0.40549165303085266
10
-254.98327122544222
20
-162.24016796590408
10
-254.98327122544222
20
-160.24016796590413
10
-249.98327122544222
20
-160.24016796590413
10
-249.98327122544219
20
-162.24016796590411
10
-254.98327122544225
20
-162.24016796590408
42
-0.42298959633600702
10
-178.87155162976904
20
-86.128448370231013
10
-178.87155162976904
20
-91.128448370230984
10
-180.87155162976902
20
-91.128448370230984
10
-180.87155162976902
20
-86.128448370230984
10
-178.87155162976904
20
-86.128448370230984
42
-0.40549165303085222
10
-105.00000000000011
20
-159.99999999999997
10
-105.00000000000007
20
-162
10
-110.00000000000007
20
-162
10
-110.00000000000007
20
-160
10
-105.00000000000007
20
-159.99999999999997
42
-0.42298959633600697
10
-181.11171959567321
20
-236.11171959567315
10
-181.11171959567321
20
-231.11171959567315
10
-179.11171959567324
20
-231.11171959567315
0
LWPOLYLINE
5
126
100
AcDbEntity
8
0
100
AcDbPolyline
90
12
70
1
43
0.0
10
-450.00000000000222
20
-219.99999999999761
10
-450.00000000000239
20
-175.84150521529818
10
-465.00000000000273
20
-175.84150521529818
10
-465.00000000000273
20
-177.84150521529818
10
-475.0000000000029
20
-177.84150521529813
10
-475.00000000000284
20
-175.84150521529813
10
-490.00000000000313
20
-175.84150521529818
10
-490.0000000000029
20
-219.99999999999761
10
-475.00000000000261
20
-219.99999999999761
10
-475.00000000000273
20
-217.95021098940484
10
-465.0000000000025
20
-217.95021098939765
10
-465.0000000000025
20
-219.99999999999761
0
ENDSEC
0
SECTION
2
OBJECTS
0
DICTIONARY
5
C
100
AcDbDictionary
3
ACAD_GROUP
350
D
3
ACAD_MLINESTYLE
350
17
0
DICTIONARY
5
D
100
AcDbDictionary
0
DICTIONARY
5
1A
330
C
100
AcDbDictionary
0
DICTIONARY
5
17
100
AcDbDictionary
0
ENDSEC
0
EOF
